<?xml version="1.0" standalone="no"?>
<!DOCTYPE svg PUBLIC "-//W3C//DTD SVG 20010904//EN"
 "http://www.w3.org/TR/2001/REC-SVG-20010904/DTD/svg10.dtd">
<svg version="1.0" xmlns="http://www.w3.org/2000/svg"
 width="373.000000pt" height="357.000000pt" viewBox="0 0 373.000000 357.000000"
 preserveAspectRatio="xMidYMid meet">
<metadata>
Created by potrace 1.16, written by Peter Selinger 2001-2019
</metadata>
<g transform="translate(0.000000,357.000000) scale(0.100000,-0.100000)"
fill="#000000" stroke="none">
<path d="M1730 3470 c16 -6 2 -7 -40 -4 -48 4 -61 3 -50 -5 11 -8 2 -9 -35 -5
-37 4 -46 3 -35 -5 11 -8 5 -9 -25 -5 -30 4 -36 3 -25 -5 11 -8 7 -9 -19 -4
-25 4 -32 3 -27 -6 6 -9 0 -10 -20 -5 -21 5 -25 4 -19 -6 6 -10 4 -12 -9 -7
-23 9 -68 -2 -60 -15 4 -6 -2 -7 -16 -3 -14 5 -20 3 -16 -3 4 -6 -2 -8 -16 -4
-12 3 -19 1 -15 -5 3 -5 -6 -10 -21 -10 -32 0 -194 -72 -187 -83 3 -4 -2 -11
-11 -14 -9 -3 -12 -2 -8 5 11 18 -60 -22 -79 -45 -10 -11 -16 -15 -12 -8 12
23 -44 -11 -156 -94 -90 -67 -309 -274 -309 -293 0 -3 57 -7 128 -8 89 -1 150
-7 205 -21 42 -10 77 -17 77 -15 0 16 -84 153 -94 153 -22 0 -46 35 -46 67 0
19 9 38 25 53 22 21 30 22 63 14 33 -8 55 -2 220 62 160 63 186 76 203 103 23
38 54 52 91 39 32 -11 54 -58 39 -85 -7 -15 -4 -37 15 -89 14 -38 27 -75 29
-82 3 -9 19 1 47 28 77 74 178 120 306 140 92 15 105 5 130 -107 11 -48 23
-111 27 -139 l7 -51 64 -7 c127 -13 350 -95 458 -169 l37 -25 -90 -58 c-50
-32 -89 -59 -87 -61 1 -2 54 10 117 27 63 16 123 30 133 30 29 0 183 -163 250
-262 31 -47 71 -119 90 -159 31 -68 86 -227 86 -250 0 -5 -110 -9 -280 -9
l-280 0 0 -110 0 -110 -109 0 c-105 0 -109 1 -114 23 -3 12 3 51 13 87 17 60
19 62 19 27 l1 -39 25 30 c55 66 61 157 17 246 -24 47 -26 56 -13 56 9 0 27
-7 40 -17 23 -16 23 -15 -5 37 -36 67 -108 140 -174 177 l-50 28 47 5 48 5
-50 32 c-28 17 -77 39 -111 48 l-61 17 -34 102 c-18 55 -35 106 -37 113 -2 9
11 11 50 7 51 -5 52 -5 33 11 -11 10 -39 26 -61 36 l-41 19 8 47 c10 53 -2
173 -28 265 -17 64 -10 63 -135 32 -120 -29 -228 -106 -274 -195 -22 -44 -28
-49 -81 -63 -32 -9 -93 -29 -136 -45 -71 -26 -77 -27 -60 -9 10 12 36 34 58
50 39 29 39 29 10 23 -107 -24 -182 -62 -249 -125 l-51 -48 -83 24 c-177 51
-346 52 -476 3 l-58 -21 6 -36 c12 -76 103 -240 213 -384 l44 -58 -56 -67
c-56 -68 -119 -182 -131 -238 -4 -21 9 -6 44 50 69 111 97 135 55 46 -73 -152
-91 -312 -45 -411 l20 -45 2 85 c2 92 1 94 40 -60 26 -107 77 -212 131 -273
23 -26 43 -46 45 -44 2 2 -9 33 -25 68 -46 104 -47 120 -3 59 82 -113 231
-194 397 -215 l50 -6 -50 24 c-52 26 -146 104 -110 92 64 -22 219 -57 271 -62
62 -6 62 -6 68 -42 3 -19 15 -43 27 -52 20 -15 21 -21 14 -93 -6 -64 -9 -75
-20 -66 -19 16 -18 19 -55 -360 -39 -416 -36 -397 -66 -403 -30 -5 -30 -18 -3
241 11 112 19 205 17 206 -68 41 -132 90 -188 143 l-71 67 3 -117 3 -117 -43
0 c-35 0 -42 -3 -40 -17 2 -10 -3 -18 -9 -17 -7 1 -80 2 -163 3 l-150 1 0 195
c0 107 -3 195 -8 195 -4 0 -16 -15 -26 -34 -34 -64 -92 -72 -143 -21 l-35 35
-28 -23 c-16 -12 -29 -26 -29 -30 -2 -20 41 -87 51 -81 7 4 8 3 4 -5 -8 -12
85 -164 107 -178 6 -4 1 8 -12 25 -31 44 -20 40 15 -5 15 -20 22 -33 16 -29
-7 4 -12 3 -12 -2 0 -12 25 -33 32 -27 6 7 84 -87 81 -97 -4 -11 67 -79 76
-74 4 3 21 -9 37 -27 l29 -32 -35 30 c-33 28 -33 28 5 -13 22 -23 45 -40 52
-38 6 3 17 -3 25 -12 12 -16 11 -16 -7 -2 -20 15 -20 15 -1 -8 11 -12 25 -21
32 -18 7 3 18 -3 26 -12 12 -15 11 -16 -5 -3 -9 7 -17 11 -17 8 0 -11 120 -88
129 -83 4 3 8 -1 8 -9 0 -13 -60 -15 -424 -15 l-423 0 0 -70 0 -70 1755 0
1756 0 -3 407 -3 408 -24 34 c-14 20 -46 44 -78 58 -29 13 -53 27 -53 30 0 4
3 3 7 -1 15 -15 118 292 109 327 -2 9 0 17 6 17 6 0 8 13 6 29 -3 18 0 28 5
24 6 -4 8 10 4 37 -4 31 -3 40 5 29 7 -10 8 6 4 51 -3 41 -1 58 4 45 5 -12 9
41 9 140 0 99 -4 152 -9 140 -5 -13 -7 4 -4 45 4 45 3 61 -4 51 -8 -11 -9 -2
-5 29 5 33 3 41 -7 35 -9 -5 -10 -2 -6 13 10 29 -4 98 -15 80 -6 -8 -6 0 -2
21 5 27 3 32 -7 26 -9 -5 -11 -4 -6 4 9 15 -3 73 -14 66 -4 -3 -6 5 -2 17 3
13 1 19 -5 15 -7 -5 -9 1 -5 15 3 13 1 19 -5 15 -7 -5 -9 1 -5 15 4 16 2 19
-8 13 -9 -5 -11 -4 -6 4 10 16 -3 53 -16 45 -7 -4 -8 -2 -4 5 10 16 -3 53 -16
45 -6 -4 -8 -2 -5 4 9 14 -3 43 -14 36 -5 -3 -6 3 -2 12 4 10 2 15 -3 11 -6
-3 -10 5 -9 17 0 13 19 44 42 69 152 164 163 421 27 613 -153 217 -466 254
-654 78 -50 -46 -84 -61 -97 -41 -3 6 -1 7 5 3 7 -4 12 -5 12 -2 0 3 -23 17
-51 32 -28 14 -48 20 -44 14 6 -9 2 -9 -14 -1 -11 7 -21 16 -21 22 0 6 -4 7
-10 4 -5 -3 -10 -2 -10 3 0 21 -262 116 -293 106 -14 -4 -17 -3 -12 6 6 10 1
11 -19 6 -20 -5 -26 -4 -20 5 5 9 -2 10 -27 6 -25 -5 -30 -4 -19 4 11 8 6 9
-22 7 -21 -2 -34 0 -31 6 4 5 -11 7 -37 3 -31 -4 -40 -3 -29 5 10 7 -6 8 -51
4 -41 -3 -58 -1 -45 4 12 5 -44 8 -145 8 -103 0 -156 -3 -140 -8z m1668 -367
c-2 -19 -10 -29 -23 -31 -11 -2 -23 -7 -27 -10 -4 -4 -14 -54 -23 -112 -9 -58
-21 -118 -27 -133 -36 -92 -178 -88 -178 5 0 45 25 68 73 68 28 0 48 -7 64
-22 13 -12 25 -20 27 -17 8 9 17 199 9 199 -5 0 -47 -13 -93 -28 l-85 -29 -22
-123 c-24 -133 -45 -172 -103 -185 -81 -18 -140 73 -84 129 23 23 86 20 118
-5 15 -12 29 -20 30 -18 2 2 8 69 12 149 l9 145 135 21 c189 30 192 30 188 -3z
m-1567 -90 c16 -56 19 -237 4 -252 -7 -7 -44 7 -115 44 -58 30 -113 54 -122
55 -64 1 56 141 153 178 30 12 57 21 60 21 4 1 13 -20 20 -46z m-1060 -359
l80 -25 -45 -50 c-25 -28 -62 -78 -82 -112 -21 -34 -39 -64 -40 -66 -20 -25
-194 206 -194 258 0 17 74 30 138 25 35 -2 99 -16 143 -30z m705 -65 c62 -30
156 -135 200 -223 63 -128 60 -255 -9 -332 -86 -98 -245 -110 -348 -25 -113
93 -141 324 -59 498 46 100 121 128 216 82z m524 -464 c0 -19 -10 -59 -22 -90
-18 -42 -28 -55 -44 -55 -34 0 -121 29 -145 49 -20 16 -21 21 -10 35 19 23
169 96 197 96 21 0 24 -5 24 -35z m-1110 -100 c0 -28 91 -192 137 -248 178
-213 416 -258 721 -136 41 16 77 27 81 24 25 -26 -272 -114 -384 -114 -65 -1
-175 27 -245 60 -102 50 -212 167 -278 297 -48 96 -66 152 -42 137 6 -3 10
-12 10 -20z m2183 -185 c14 -11 34 -20 46 -20 20 0 51 -34 51 -57 0 -7 -9 -22
-20 -33 -17 -17 -33 -20 -120 -20 l-100 0 0 55 c0 69 22 95 79 95 23 0 48 -8
64 -20z m-583 -232 c0 -88 0 -88 -25 -88 -30 0 -75 -41 -75 -68 0 -18 -6 -19
-70 -14 l-70 5 0 -60 0 -61 -65 -16 c-36 -9 -99 -19 -139 -23 -79 -6 -86 -11
-86 -72 0 -24 0 -24 82 -17 74 6 144 18 191 32 15 5 17 -3 17 -75 l0 -81 68 0
c64 0 68 -1 84 -30 15 -26 23 -30 60 -31 249 -5 302 -9 320 -25 26 -25 22 -44
-18 -85 l-36 -37 1 -114 c2 -127 -10 -161 -71 -198 -50 -30 -142 -28 -190 5
-20 14 -39 33 -43 43 -7 24 -40 18 -162 -27 -98 -36 -225 -59 -345 -63 -70 -2
-88 -6 -88 -18 0 -8 7 -58 15 -110 21 -137 20 -148 -9 -143 -29 6 -23 -25 -81
393 -56 397 -53 384 -70 370 -18 -15 -21 -6 -29 70 -4 36 -13 71 -19 79 -10
12 -8 13 14 8 52 -13 93 52 71 112 -8 23 -4 27 51 55 80 41 163 119 210 197
33 54 38 59 33 32 -3 -18 -8 -48 -12 -65 l-5 -33 31 35 c17 19 45 59 61 87 40
69 53 76 47 28 l-4 -37 25 30 c14 16 43 35 64 42 22 7 43 21 48 33 9 21 17 22
114 22 l105 0 0 -87z m583 62 c14 -11 34 -20 46 -20 11 0 28 -11 37 -25 27
-41 0 -84 -48 -76 -5 0 -8 -3 -8 -9 0 -6 -35 -10 -85 -10 l-85 0 0 60 c0 74
20 100 79 100 23 0 48 -8 64 -20z m-1483 -490 c23 -16 28 -31 39 -113 7 -53
10 -100 7 -105 -4 -6 -31 -16 -60 -23 -48 -10 -62 -9 -113 7 -67 22 -69 27
-58 139 l7 70 41 21 c53 26 105 27 137 4z m-121 -378 c-19 -30 -3 -68 38 -93
47 -27 63 -47 56 -65 -6 -16 -46 -18 -73 -4 -15 8 -21 6 -30 -10 -9 -17 -7
-22 12 -30 22 -9 22 -9 -4 -9 -31 -1 -29 -5 -53 123 -8 43 -12 82 -9 87 5 9
66 28 72 23 2 -1 -2 -11 -9 -22z"/>
<path d="M1344 3211 c-6 -27 -18 -33 -223 -113 -197 -77 -218 -83 -238 -70
-24 15 -43 9 -43 -14 0 -8 10 -14 23 -14 19 0 30 -13 56 -68 18 -37 40 -78 49
-90 l17 -21 219 84 c121 47 221 87 223 89 3 2 -11 48 -30 100 -19 53 -31 99
-26 102 15 9 10 44 -6 44 -9 0 -18 -12 -21 -29z"/>
<path d="M336 2564 c-3 -9 -3 -21 1 -26 4 -7 1 -8 -7 -3 -10 6 -12 4 -7 -9 4
-9 3 -15 -2 -12 -12 8 -55 -90 -46 -105 5 -7 4 -10 -3 -5 -13 8 -26 -29 -16
-45 4 -7 3 -9 -4 -5 -13 8 -26 -29 -16 -45 5 -8 3 -9 -6 -4 -10 6 -12 3 -8
-13 4 -14 2 -20 -5 -15 -6 4 -8 -2 -5 -15 4 -14 2 -20 -4 -16 -7 5 -9 -2 -6
-19 3 -15 2 -24 -2 -22 -12 7 -31 -82 -24 -113 4 -22 3 -24 -6 -12 -9 12 -10
7 -6 -25 4 -30 3 -36 -5 -25 -8 11 -9 2 -5 -35 4 -37 3 -46 -5 -35 -8 11 -9
-2 -5 -50 4 -42 2 -58 -4 -45 -5 13 -9 -33 -9 -130 0 -98 4 -143 10 -130 6 13
7 0 3 -40 -4 -33 -11 -67 -18 -75 -7 -10 -3 -9 10 2 71 61 162 13 298 -156 72
-89 77 -94 143 -115 37 -13 101 -25 141 -28 l73 -6 -12 25 c-8 18 -17 24 -31
20 -34 -9 -136 108 -183 209 -23 51 -47 90 -60 95 -11 5 -33 36 -50 69 -27 54
-30 69 -30 155 0 81 -3 97 -19 109 -42 31 5 174 102 310 l53 74 -23 31 c-50
67 -144 214 -162 254 -20 45 -30 51 -40 26z m253 -1213 c36 -57 112 -127 144
-135 12 -3 -3 -3 -33 -1 -85 5 -170 39 -207 83 -18 20 -32 39 -32 42 -1 3 21
17 47 32 26 15 47 27 48 27 0 1 15 -21 33 -48z"/>
<path d="M176 1455 c-21 -21 -20 -59 0 -90 9 -14 49 -47 88 -73 l72 -48 -88 4
c-96 5 -129 0 -152 -24 -21 -21 -20 -40 4 -64 25 -25 99 -27 180 -5 69 18 69
18 42 -1 -35 -24 -82 -94 -82 -120 0 -13 8 -28 19 -33 24 -13 73 18 117 76
l31 41 12 -53 c14 -63 40 -92 69 -76 29 15 34 38 17 77 -8 19 -13 34 -11 34 2
0 23 -7 46 -15 23 -8 44 -15 46 -15 2 0 4 20 4 45 0 41 -3 47 -27 55 -79 29
-102 45 -141 99 -42 57 -147 167 -173 181 -35 19 -57 20 -73 5z"/>
</g>
</svg>
